<?xml version="1.0" standalone="no"?><svg xmlns="http://www.w3.org/2000/svg" viewBox="0 0 1440 320"><path fill="#800080" fill-opacity="0.16" d="M0,128L12,154.7C24,181,48,235,72,256C96,277,120,267,144,224C168,181,192,107,216,69.3C240,32,264,32,288,74.7C312,117,336,203,360,208C384,213,408,139,432,101.3C456,64,480,64,504,90.7C528,117,552,171,576,192C600,213,624,203,648,202.7C672,203,696,213,720,229.3C744,245,768,267,792,245.3C816,224,840,160,864,138.7C888,117,912,139,936,128C960,117,984,75,1008,53.3C1032,32,1056,32,1080,74.7C1104,117,1128,203,1152,245.3C1176,288,1200,288,1224,277.3C1248,267,1272,245,1296,229.3C1320,213,1344,203,1368,176C1392,149,1416,107,1428,85.3L1440,64L1440,320L1428,320C1416,320,1392,320,1368,320C1344,320,1320,320,1296,320C1272,320,1248,320,1224,320C1200,320,1176,320,1152,320C1128,320,1104,320,1080,320C1056,320,1032,320,1008,320C984,320,960,320,936,320C912,320,888,320,864,320C840,320,816,320,792,320C768,320,744,320,720,320C696,320,672,320,648,320C624,320,600,320,576,320C552,320,528,320,504,320C480,320,456,320,432,320C408,320,384,320,360,320C336,320,312,320,288,320C264,320,240,320,216,320C192,320,168,320,144,320C120,320,96,320,72,320C48,320,24,320,12,320L0,320Z"></path></svg>